<svg width="243" height="243" viewBox="0 0 243 243" fill="none" xmlns="http://www.w3.org/2000/svg">
<path d="M212.326 148.243L212.325 148.244C208.621 150.302 205.242 152.897 202.298 155.946L201.855 156.406L202.408 156.726L227.13 171.042L217.188 188.235L192.467 173.948L191.913 173.628L191.736 174.243C190.56 178.329 190 182.568 190.075 186.82L190.075 186.82L190.26 196.762L170.377 197.132L170.192 187.191C170.049 179.249 171.412 171.351 174.208 163.916L174.357 163.519L173.99 163.307L132.192 139.154L131.441 138.721V139.587V187.86V188.284L131.86 188.353C139.695 189.649 147.214 192.418 154.019 196.513L162.532 201.642L152.27 218.673L143.756 213.545L143.756 213.544C140.119 211.358 136.179 209.722 132.063 208.69L131.441 208.534V209.175V234.906H111.559V209.175V208.534L110.937 208.69C106.821 209.722 102.881 211.358 99.2442 213.544L99.2438 213.545L90.7304 218.673L80.4682 201.642L88.9813 196.513C95.7859 192.418 103.305 189.649 111.14 188.353L111.559 188.284V187.86V139.587V138.721L110.808 139.154L69.0096 163.307L68.6424 163.519L68.7918 163.916C71.5901 171.353 72.9545 179.252 72.813 187.196L72.6277 197.137L52.7447 196.767L52.93 186.825C53.0087 182.581 52.4552 178.348 51.2877 174.267L51.1115 173.651L50.5569 173.972L25.8119 188.259L15.8702 171.042L40.6161 156.707L41.1703 156.386L40.7245 155.927C37.7727 152.882 34.3856 150.293 30.6738 148.243C30.6738 148.243 30.6737 148.243 30.6737 148.243L21.9752 143.435L31.5911 126.033L40.2848 130.841C40.2849 130.841 40.2849 130.841 40.2849 130.841C47.235 134.687 53.3928 139.816 58.4318 145.956L58.701 146.284L59.0684 146.072L100.867 121.933L101.617 121.5L100.867 121.067L59.0732 96.9284L58.7057 96.7162L58.4366 97.0442C53.3976 103.184 47.2398 108.313 40.2898 112.159C40.2897 112.159 40.2896 112.159 40.2896 112.159L31.5912 116.967L21.9752 99.5649L30.6737 94.7616L30.432 94.3239L30.6737 94.7616C34.3855 92.7116 37.7726 90.1223 40.7245 87.0782L41.1709 86.6179L40.6156 86.2971L15.8705 72.0052L25.8122 54.788L50.5527 69.0333L51.107 69.3525L51.2829 68.7376C52.4505 64.6563 53.004 60.424 52.9253 56.1797L52.74 46.2382L72.623 45.8676L72.8082 55.8088C72.9507 63.7511 71.5879 71.6486 68.7917 79.0838L68.6425 79.4806L69.0096 79.6927L110.808 103.846L111.559 104.279V103.413V55.1401V54.716L111.14 54.6468C103.305 53.3508 95.786 50.582 88.9815 46.4869C88.9814 46.4868 88.9814 46.4868 88.9813 46.4867L80.4682 41.3581L90.7304 24.3266L99.2438 29.4554L99.2442 29.4556C102.881 31.6422 106.821 33.2782 110.937 34.3104L111.559 34.4663V33.8254V8.09375H131.441V33.8254V34.4663L132.063 34.3104C136.179 33.2782 140.119 31.6422 143.756 29.4556L143.756 29.4554L152.27 24.3266L162.532 41.3581L154.019 46.4867C147.214 50.5819 139.695 53.3508 131.86 54.6468L131.441 54.716V55.1401V103.413V104.279L132.192 103.846L173.99 79.6927L174.357 79.4808L174.208 79.0842C171.421 71.6536 170.065 63.7628 170.211 55.8281L170.396 45.8866L190.279 46.2572L190.094 56.1987C190.015 60.443 190.569 64.6753 191.736 68.7565L191.912 69.3721L192.467 69.0521L217.188 54.7882L227.129 71.9819L202.389 86.2926L201.834 86.6134L202.28 87.0734C205.232 90.1175 208.619 92.7068 212.331 94.7567C212.331 94.7568 212.331 94.7568 212.331 94.7568L221.03 99.5647L211.414 116.967L202.715 112.159C202.715 112.159 202.715 112.159 202.715 112.159C195.765 108.313 189.607 103.184 184.568 97.0442L184.299 96.7162L183.932 96.9284L142.133 121.067L141.383 121.5L142.133 121.933L183.927 146.072L184.294 146.284L184.563 145.956C189.602 139.816 195.76 134.687 202.71 130.841L211.409 126.033L221.025 143.435L212.326 148.243Z" stroke="#0D47A1"/>
</svg>
